        <svg width="341" height="136" viewBox="0 0 341 136" fill="none" xmlns="http://www.w3.org/2000/svg">
            <rect id="button" x="2" y="30" width="130" height="31" rx="15.5" fill="url(#paint0_linear_2_29)"></rect>
            <path d="M18.5197 50V41.2727H19.5765V45.1591H24.2299V41.2727H25.2868V50H24.2299V46.0966H19.5765V50H18.5197ZM30.0105 50.1364C29.3798 50.1364 28.8358 49.9972 28.3784 49.7188C27.9238 49.4375 27.573 49.0455 27.3258 48.5426C27.0815 48.0369 26.9593 47.4489 26.9593 46.7784C26.9593 46.108 27.0815 45.517 27.3258 45.0057C27.573 44.4915 27.9167 44.0909 28.3571 43.804C28.8002 43.5142 29.3173 43.3693 29.9082 43.3693C30.2491 43.3693 30.5858 43.4261 30.9181 43.5398C31.2505 43.6534 31.5531 43.8381 31.8258 44.0938C32.0985 44.3466 32.3159 44.6818 32.4778 45.0994C32.6397 45.517 32.7207 46.0312 32.7207 46.642V47.0682H27.6752V46.1989H31.698C31.698 45.8295 31.6241 45.5 31.4764 45.2102C31.3315 44.9205 31.1241 44.6918 30.8542 44.5241C30.5872 44.3565 30.2718 44.2727 29.9082 44.2727C29.5076 44.2727 29.161 44.3722 28.8684 44.571C28.5787 44.767 28.3556 45.0227 28.1994 45.3381C28.0431 45.6534 27.965 45.9915 27.965 46.3523V46.9318C27.965 47.4261 28.0502 47.8452 28.2207 48.1889C28.394 48.5298 28.6341 48.7898 28.9409 48.9688C29.2477 49.1449 29.6042 49.233 30.0105 49.233C30.2747 49.233 30.5133 49.196 30.7264 49.1222C30.9423 49.0455 31.1284 48.9318 31.2846 48.7812C31.4409 48.6278 31.5616 48.4375 31.6468 48.2102L32.6184 48.483C32.5162 48.8125 32.3443 49.1023 32.1028 49.3523C31.8613 49.5994 31.563 49.7926 31.2079 49.9318C30.8528 50.0682 30.4537 50.1364 30.0105 50.1364ZM34.2505 50V43.4545H35.2221V44.4432H35.2903C35.4096 44.1193 35.6255 43.8565 35.938 43.6548C36.2505 43.4531 36.6028 43.3523 36.9949 43.3523C37.0687 43.3523 37.161 43.3537 37.2718 43.3565C37.3826 43.3594 37.4664 43.3636 37.5233 43.3693V44.392C37.4892 44.3835 37.411 44.3707 37.2889 44.3537C37.1696 44.3338 37.0431 44.3239 36.9096 44.3239C36.5914 44.3239 36.3074 44.3906 36.0574 44.5241C35.8102 44.6548 35.6142 44.8366 35.4693 45.0696C35.3272 45.2997 35.2562 45.5625 35.2562 45.858V50H34.2505ZM41.2605 50.1364C40.6298 50.1364 40.0858 49.9972 39.6284 49.7188C39.1738 49.4375 38.823 49.0455 38.5758 48.5426C38.3315 48.0369 38.2093 47.4489 38.2093 46.7784C38.2093 46.108 38.3315 45.517 38.5758 45.0057C38.823 44.4915 39.1667 44.0909 39.6071 43.804C40.0502 43.5142 40.5673 43.3693 41.1582 43.3693C41.4991 43.3693 41.8358 43.4261 42.1681 43.5398C42.5005 43.6534 42.8031 43.8381 43.0758 44.0938C43.3485 44.3466 43.5659 44.6818 43.7278 45.0994C43.8897 45.517 43.9707 46.0312 43.9707 46.642V47.0682H38.9252V46.1989H42.948C42.948 45.8295 42.8741 45.5 42.7264 45.2102C42.5815 44.9205 42.3741 44.6918 42.1042 44.5241C41.8372 44.3565 41.5218 44.2727 41.1582 44.2727C40.7576 44.2727 40.411 44.3722 40.1184 44.571C39.8287 44.767 39.6056 45.0227 39.4494 45.3381C39.2931 45.6534 39.215 45.9915 39.215 46.3523V46.9318C39.215 47.4261 39.3002 47.8452 39.4707 48.1889C39.644 48.5298 39.8841 48.7898 40.1909 48.9688C40.4977 49.1449 40.8542 49.233 41.2605 49.233C41.5247 49.233 41.7633 49.196 41.9764 49.1222C42.1923 49.0455 42.3784 48.9318 42.5346 48.7812C42.6909 48.6278 42.8116 48.4375 42.8968 48.2102L43.8684 48.483C43.7662 48.8125 43.5943 49.1023 43.3528 49.3523C43.1113 49.5994 42.813 49.7926 42.4579 49.9318C42.1028 50.0682 41.7037 50.1364 41.2605 50.1364ZM48.8755 50V43.4545H49.8812V50H48.8755ZM49.3869 42.3636C49.1909 42.3636 49.0218 42.2969 48.8798 42.1634C48.7406 42.0298 48.671 41.8693 48.671 41.6818C48.671 41.4943 48.7406 41.3338 48.8798 41.2003C49.0218 41.0668 49.1909 41 49.3869 41C49.5829 41 49.7505 41.0668 49.8897 41.2003C50.0318 41.3338 50.1028 41.4943 50.1028 41.6818C50.1028 41.8693 50.0318 42.0298 49.8897 42.1634C49.7505 42.2969 49.5829 42.3636 49.3869 42.3636ZM56.3596 44.9205L55.4561 45.1761C55.3993 45.0256 55.3155 44.8793 55.2047 44.7372C55.0968 44.5923 54.949 44.473 54.7615 44.3793C54.574 44.2855 54.334 44.2386 54.0414 44.2386C53.6408 44.2386 53.307 44.331 53.04 44.5156C52.7757 44.6974 52.6436 44.929 52.6436 45.2102C52.6436 45.4602 52.7346 45.6577 52.9164 45.8026C53.0982 45.9474 53.3823 46.0682 53.7686 46.1648L54.7402 46.4034C55.3255 46.5455 55.7615 46.7628 56.0485 47.0554C56.3354 47.3452 56.4789 47.7187 56.4789 48.1761C56.4789 48.5511 56.3709 48.8864 56.155 49.1818C55.9419 49.4773 55.6436 49.7102 55.2601 49.8807C54.8766 50.0511 54.4306 50.1364 53.9221 50.1364C53.2544 50.1364 52.7019 49.9915 52.2644 49.7017C51.8269 49.4119 51.5499 48.9886 51.4334 48.4318L52.388 48.1932C52.4789 48.5455 52.6507 48.8097 52.9036 48.9858C53.1593 49.1619 53.4931 49.25 53.905 49.25C54.3738 49.25 54.7459 49.1506 55.0215 48.9517C55.2999 48.75 55.4391 48.5085 55.4391 48.2273C55.4391 48 55.3596 47.8097 55.2005 47.6562C55.0414 47.5 54.7971 47.3835 54.4675 47.3068L53.3766 47.0511C52.7772 46.9091 52.3368 46.6889 52.0556 46.3906C51.7772 46.0895 51.638 45.7131 51.638 45.2614C51.638 44.892 51.7417 44.5653 51.949 44.2812C52.1593 43.9972 52.4448 43.7741 52.8056 43.6122C53.1692 43.4503 53.5811 43.3693 54.0414 43.3693C54.6891 43.3693 55.1976 43.5114 55.5669 43.7955C55.9391 44.0795 56.2033 44.4545 56.3596 44.9205ZM63.2939 50.1534C62.8791 50.1534 62.5027 50.0753 62.1646 49.919C61.8265 49.7599 61.5581 49.5312 61.3592 49.233C61.1603 48.9318 61.0609 48.5682 61.0609 48.142C61.0609 47.767 61.1348 47.4631 61.2825 47.2301C61.4302 46.9943 61.6277 46.8097 61.8748 46.6761C62.122 46.5426 62.3947 46.4432 62.693 46.3778C62.9941 46.3097 63.2967 46.2557 63.6007 46.2159C63.9984 46.1648 64.3208 46.1264 64.568 46.1009C64.818 46.0724 64.9998 46.0256 65.1135 45.9602C65.2299 45.8949 65.2882 45.7812 65.2882 45.6193V45.5852C65.2882 45.1648 65.1731 44.8381 64.943 44.6051C64.7157 44.3722 64.3706 44.2557 63.9075 44.2557C63.4274 44.2557 63.051 44.3608 62.7782 44.571C62.5055 44.7812 62.3137 45.0057 62.2029 45.2443L61.2484 44.9034C61.4189 44.5057 61.6461 44.196 61.9302 43.9744C62.2172 43.75 62.5297 43.5937 62.8677 43.5057C63.2086 43.4148 63.5439 43.3693 63.8734 43.3693C64.0836 43.3693 64.3251 43.3949 64.5978 43.446C64.8734 43.4943 65.139 43.5952 65.3947 43.7486C65.6532 43.902 65.8677 44.1335 66.0382 44.4432C66.2086 44.7528 66.2939 45.1676 66.2939 45.6875V50H65.2882V49.1136H65.237C65.1689 49.2557 65.0552 49.4077 64.8961 49.5696C64.737 49.7315 64.5254 49.8693 64.2612 49.983C63.997 50.0966 63.6745 50.1534 63.2939 50.1534ZM63.4473 49.25C63.845 49.25 64.1802 49.1719 64.4529 49.0156C64.7285 48.8594 64.9359 48.6577 65.0751 48.4105C65.2172 48.1634 65.2882 47.9034 65.2882 47.6307V46.7102C65.2456 46.7614 65.1518 46.8082 65.0069 46.8509C64.8649 46.8906 64.7001 46.9261 64.5126 46.9574C64.3279 46.9858 64.1475 47.0114 63.9714 47.0341C63.7981 47.054 63.6575 47.071 63.5495 47.0852C63.2882 47.1193 63.0439 47.1747 62.8166 47.2514C62.5922 47.3253 62.4103 47.4375 62.2711 47.5881C62.1348 47.7358 62.0666 47.9375 62.0666 48.1932C62.0666 48.5426 62.1958 48.8068 62.4544 48.9858C62.7157 49.1619 63.0467 49.25 63.4473 49.25ZM74.1635 50.1364C73.5499 50.1364 73.0215 49.9915 72.5783 49.7017C72.1351 49.4119 71.7942 49.0128 71.5556 48.5043C71.3169 47.9957 71.1976 47.4148 71.1976 46.7614C71.1976 46.0966 71.3198 45.5099 71.5641 45.0014C71.8113 44.4901 72.155 44.0909 72.5953 43.804C73.0385 43.5142 73.5556 43.3693 74.1465 43.3693C74.6067 43.3693 75.0215 43.4545 75.3908 43.625C75.7601 43.7955 76.0627 44.0341 76.2985 44.3409C76.5343 44.6477 76.6806 45.0057 76.7374 45.4148H75.7317C75.655 45.1165 75.4846 44.8523 75.2203 44.6222C74.959 44.3892 74.6067 44.2727 74.1635 44.2727C73.7715 44.2727 73.4277 44.375 73.1323 44.5795C72.8397 44.7812 72.611 45.0668 72.4462 45.4361C72.2843 45.8026 72.2033 46.233 72.2033 46.7273C72.2033 47.233 72.2828 47.6733 72.4419 48.0483C72.6039 48.4233 72.8311 48.7145 73.1238 48.9219C73.4192 49.1293 73.7658 49.233 74.1635 49.233C74.4249 49.233 74.6621 49.1875 74.8752 49.0966C75.0882 49.0057 75.2686 48.875 75.4164 48.7045C75.5641 48.5341 75.6692 48.3295 75.7317 48.0909H76.7374C76.6806 48.4773 76.54 48.8253 76.3155 49.1349C76.0939 49.4418 75.7999 49.6861 75.4334 49.8679C75.0698 50.0469 74.6465 50.1364 74.1635 50.1364ZM79.2132 46.0625V50H78.2076V41.2727H79.2132V44.4773H79.2985C79.4519 44.1392 79.682 43.8707 79.9888 43.6719C80.2985 43.4702 80.7104 43.3693 81.2246 43.3693C81.6706 43.3693 82.0613 43.4588 82.3965 43.6378C82.7317 43.8139 82.9917 44.0852 83.1763 44.4517C83.3638 44.8153 83.4576 45.2784 83.4576 45.8409V50H82.4519V45.9091C82.4519 45.3892 82.3169 44.9872 82.0471 44.7031C81.78 44.4162 81.4093 44.2727 80.9348 44.2727C80.6053 44.2727 80.3098 44.3423 80.0485 44.4815C79.79 44.6207 79.5854 44.8239 79.4348 45.0909C79.2871 45.358 79.2132 45.6818 79.2132 46.0625ZM85.2974 50V43.4545H86.3031V50H85.2974ZM85.8088 42.3636C85.6127 42.3636 85.4437 42.2969 85.3017 42.1634C85.1625 42.0298 85.0929 41.8693 85.0929 41.6818C85.0929 41.4943 85.1625 41.3338 85.3017 41.2003C85.4437 41.0668 85.6127 41 85.8088 41C86.0048 41 86.1724 41.0668 86.3116 41.2003C86.4537 41.3338 86.5247 41.4943 86.5247 41.6818C86.5247 41.8693 86.4537 42.0298 86.3116 42.1634C86.1724 42.2969 86.0048 42.3636 85.8088 42.3636ZM88.1451 52.4545V43.4545H89.1167V44.4943H89.236C89.3098 44.3807 89.4121 44.2358 89.5428 44.0597C89.6763 43.8807 89.8667 43.7216 90.1138 43.5824C90.3638 43.4403 90.7019 43.3693 91.128 43.3693C91.6792 43.3693 92.165 43.5071 92.5854 43.7827C93.0059 44.0582 93.334 44.4489 93.5698 44.9545C93.8056 45.4602 93.9235 46.0568 93.9235 46.7443C93.9235 47.4375 93.8056 48.0384 93.5698 48.5469C93.334 49.0526 93.0073 49.4446 92.5897 49.723C92.1721 49.9986 91.6905 50.1364 91.1451 50.1364C90.7246 50.1364 90.388 50.0668 90.1351 49.9276C89.8823 49.7855 89.6877 49.625 89.5513 49.446C89.415 49.2642 89.3098 49.1136 89.236 48.9943H89.1507V52.4545H88.1451ZM89.1337 46.7273C89.1337 47.2216 89.2061 47.6577 89.351 48.0355C89.4959 48.4105 89.7076 48.7045 89.986 48.9176C90.2644 49.1278 90.6053 49.233 91.0087 49.233C91.4292 49.233 91.78 49.1222 92.0613 48.9006C92.3453 48.6761 92.5584 48.375 92.7005 47.9972C92.8453 47.6165 92.9178 47.1932 92.9178 46.7273C92.9178 46.267 92.8468 45.8523 92.7047 45.483C92.5655 45.1108 92.3539 44.8168 92.0698 44.6009C91.7885 44.3821 91.4348 44.2727 91.0087 44.2727C90.5996 44.2727 90.2559 44.3764 89.9775 44.5838C89.699 44.7884 89.4888 45.0753 89.3468 45.4446C89.2047 45.8111 89.1337 46.2386 89.1337 46.7273Z" fill="white"></path>
            <path id="chip" d="M115.906 45C115.906 48.2619 113.262 50.9062 110 50.9062C106.738 50.9062 104.094 48.2619 104.094 45C104.094 41.7381 106.738 39.0938 110 39.0938C113.262 39.0938 115.906 41.7381 115.906 45ZM109 44V49C109 49.5523 109.448 50 110 50C110.552 50 111 49.5523 111 49V44C111 43.4477 110.552 43 110 43C109.448 43 109 43.4477 109 44ZM110 42C110.552 42 111 41.5523 111 41C111 40.4477 110.552 40 110 40C109.448 40 109 40.4477 109 41C109 41.5523 109.448 42 110 42Z" fill="white"></path>
            <rect x="2" y="30" width="130" height="31" rx="15.5" stroke="url(#paint1_linear_2_29)" stroke-width="4"></rect>
            <g filter="url(#filter0_dd_2_29)">
            <path id="tooltip" display="block" fill-rule="evenodd" clip-rule="evenodd" d="M134 24C131.239 24 129 26.2386 129 29V31.9939C127.982 34.7212 124.539 37.4358 121.608 39.746C119.149 41.6847 117.052 43.3385 117.052 44.4759C117.052 45.6309 119.215 47.3688 121.723 49.3837C124.628 51.7171 127.995 54.4218 129 57.023V59C129 61.7614 131.239 64 134 64H288C290.761 64 293 61.7614 293 59V29C293 26.2386 290.761 24 288 24H134Z" fill="#121212"></path>
            <path d="M152.373 38.8H151.085V50H152.373V44.968H159.149V50H160.437V38.8H159.149V43.752H152.373V38.8ZM166.631 42.272C164.471 42.272 162.871 43.896 162.871 46.216C162.871 48.56 164.463 50.152 166.703 50.152C167.815 50.152 168.871 49.872 169.815 48.968L169.175 48.152C168.527 48.744 167.711 49.104 166.775 49.104C165.407 49.104 164.263 48.264 164.095 46.632H170.167C170.183 46.496 170.191 46.336 170.191 46.184C170.175 43.88 168.687 42.272 166.631 42.272ZM166.607 43.336C167.895 43.336 168.823 44.248 168.975 45.664H164.111C164.303 44.296 165.207 43.336 166.607 43.336ZM175.848 42.272C174.92 42.272 174.12 42.712 173.6 43.488V42.424H172.416V50H173.608V45.76C173.608 44.328 174.456 43.4 175.64 43.4C176.08 43.4 176.584 43.504 176.952 43.704L177.24 42.528C176.84 42.344 176.392 42.272 175.848 42.272ZM181.928 42.272C179.768 42.272 178.168 43.896 178.168 46.216C178.168 48.56 179.76 50.152 182 50.152C183.112 50.152 184.168 49.872 185.112 48.968L184.472 48.152C183.824 48.744 183.008 49.104 182.072 49.104C180.704 49.104 179.56 48.264 179.392 46.632H185.464C185.48 46.496 185.488 46.336 185.488 46.184C185.472 43.88 183.984 42.272 181.928 42.272ZM181.904 43.336C183.192 43.336 184.12 44.248 184.272 45.664H179.408C179.6 44.296 180.504 43.336 181.904 43.336ZM193.178 42.424H191.978V50H193.178V42.424ZM192.578 38.888C192.098 38.888 191.738 39.256 191.738 39.736C191.738 40.216 192.098 40.576 192.578 40.576C193.05 40.576 193.426 40.216 193.426 39.736C193.426 39.256 193.05 38.888 192.578 38.888ZM201.586 43.104C200.858 42.616 199.77 42.28 198.578 42.28C196.762 42.28 195.554 43.144 195.554 44.576C195.554 45.704 196.354 46.464 198.058 46.672L198.962 46.776C200.034 46.904 200.546 47.272 200.546 47.88C200.546 48.68 199.738 49.104 198.458 49.104C197.178 49.104 196.41 48.728 195.834 48.28L195.282 49.176C196.242 49.904 197.466 50.144 198.442 50.144C200.482 50.144 201.778 49.24 201.778 47.8C201.778 46.56 200.842 45.896 199.234 45.688L198.338 45.576C197.346 45.456 196.794 45.144 196.794 44.512C196.794 43.776 197.506 43.32 198.586 43.32C199.61 43.32 200.578 43.696 201.066 44.032L201.586 43.104ZM215.302 42.424H214.11V43.552C213.51 42.784 212.59 42.272 211.342 42.272C209.214 42.272 207.558 43.936 207.558 46.208C207.558 48.488 209.214 50.152 211.342 50.152C212.59 50.152 213.51 49.648 214.11 48.872V50H215.302V42.424ZM211.486 43.392C213.062 43.392 214.182 44.608 214.182 46.208C214.182 47.816 213.062 49.032 211.486 49.032C209.878 49.032 208.774 47.776 208.774 46.208C208.774 44.648 209.862 43.392 211.486 43.392ZM227.388 42.424H224.116V40.016H222.924V42.424H221.268V43.504H222.924V47.352C222.924 49.256 223.892 50.152 225.524 50.152C226.452 50.152 227.204 49.832 227.772 49.4L227.212 48.496C226.772 48.816 226.204 49.032 225.62 49.032C224.74 49.032 224.116 48.512 224.116 47.328V43.504H227.388V42.424ZM232.871 42.272C230.591 42.272 228.887 43.968 228.887 46.208C228.887 48.456 230.591 50.152 232.871 50.152C235.151 50.152 236.863 48.456 236.863 46.208C236.863 43.968 235.151 42.272 232.871 42.272ZM232.871 43.392C234.439 43.392 235.639 44.576 235.639 46.208C235.639 47.848 234.439 49.032 232.871 49.032C231.295 49.032 230.103 47.848 230.103 46.208C230.103 44.576 231.295 43.392 232.871 43.392ZM242.496 42.272C240.216 42.272 238.512 43.968 238.512 46.208C238.512 48.456 240.216 50.152 242.496 50.152C244.776 50.152 246.488 48.456 246.488 46.208C246.488 43.968 244.776 42.272 242.496 42.272ZM242.496 43.392C244.064 43.392 245.264 44.576 245.264 46.208C245.264 47.848 244.064 49.032 242.496 49.032C240.92 49.032 239.728 47.848 239.728 46.208C239.728 44.576 240.92 43.392 242.496 43.392ZM249.913 38.48H248.713V50H249.913V38.48ZM257.857 42.424H254.585V40.016H253.393V42.424H251.737V43.504H253.393V47.352C253.393 49.256 254.361 50.152 255.993 50.152C256.921 50.152 257.673 49.832 258.241 49.4L257.681 48.496C257.241 48.816 256.673 49.032 256.089 49.032C255.209 49.032 254.585 48.512 254.585 47.328V43.504H257.857V42.424ZM261.163 42.424H259.963V50H261.163V42.424ZM260.562 38.888C260.083 38.888 259.723 39.256 259.723 39.736C259.723 40.216 260.083 40.576 260.562 40.576C261.035 40.576 261.411 40.216 261.411 39.736C261.411 39.256 261.035 38.888 260.562 38.888ZM267.923 42.272C266.674 42.272 265.763 42.776 265.163 43.544V42.424H263.963V53.2H265.163V48.88C265.763 49.648 266.674 50.152 267.923 50.152C270.051 50.152 271.707 48.488 271.707 46.208C271.707 43.936 270.051 42.272 267.923 42.272ZM267.779 43.392C269.387 43.392 270.483 44.648 270.483 46.208C270.483 47.776 269.403 49.032 267.779 49.032C266.195 49.032 265.083 47.816 265.083 46.208C265.083 44.608 266.195 43.392 267.779 43.392Z" fill="white"></path>
            </g>
            <defs>
            <filter id="filter0_dd_2_29" x="69" y="0" width="272" height="136" filterUnits="userSpaceOnUse" color-interpolation-filters="sRGB">
            <feflood flood-opacity="0" result="BackgroundImageFix"></feflood>
            <fecolormatrix in="SourceAlpha" type="matrix" values="0 0 0 0 0 0 0 0 0 0 0 0 0 0 0 0 0 0 127 0" result="hardAlpha"></fecolormatrix>
            <feoffset></feoffset>
            <fegaussianblur stdDeviation="0.5"></fegaussianblur>
            <fecolormatrix type="matrix" values="0 0 0 0 0 0 0 0 0 0 0 0 0 0 0 0 0 0 0.12 0"></fecolormatrix>
            <feblend mode="normal" in2="BackgroundImageFix" result="effect1_dropShadow_2_29"></feblend>
            <fecolormatrix in="SourceAlpha" type="matrix" values="0 0 0 0 0 0 0 0 0 0 0 0 0 0 0 0 0 0 127 0" result="hardAlpha"></fecolormatrix>
            <feoffset dy="24"></feoffset>
            <fegaussianblur stdDeviation="24"></fegaussianblur>
            <fecolormatrix type="matrix" values="0 0 0 0 0 0 0 0 0 0 0 0 0 0 0 0 0 0 0.2 0"></fecolormatrix>
            <feblend mode="normal" in2="effect1_dropShadow_2_29" result="effect2_dropShadow_2_29"></feblend>
            <feblend mode="normal" in="SourceGraphic" in2="effect2_dropShadow_2_29" result="shape"></feblend>
            </filter>
            <lineargradient id="paint0_linear_2_29" x1="67" y1="28" x2="67" y2="63" gradientUnits="userSpaceOnUse">
            <stop stop-color="#F55868"></stop>
            <stop offset="1" stop-color="#875AE0"></stop>
            </lineargradient>
            <lineargradient id="paint1_linear_2_29" x1="67" y1="28" x2="67" y2="63" gradientUnits="userSpaceOnUse">
            <stop stop-color="#279BE8"></stop>
            <stop offset="1" stop-color="#875AE0"></stop>
            </lineargradient>
            </defs>
        
        <script>
            var container = document.getElementById("button");    
            var chipButton = document.getElementById("chip");
            var tooltipVis = document.getElementById("tooltip");

            container.addEventListener("mouseover", function(){
                
                    if(container.getAttribute("fill","url(#paint0_linear_2_29)")) {
                        container.setAttribute("fill","grey");
                    }
            });

            container.addEventListener("mouseout", function(){
                if(container.getAttribute("fill","grey")) {
                    container.setAttribute("fill","url(#paint0_linear_2_29)");
                }
            });
            
            container.addEventListener("click", function() {
                if(tooltipVis.getAttribute("display") === "block") {
                    tooltipVis.setAttribute("display", "none");
                } else {
                    tooltipVis.setAttribute("display", "block");
                    
                }
            });
        </script>
    </svg>